<?xml version="1.0" encoding="iso-8859-1"?>
<!-- Generator: Adobe Illustrator 19.0.0, SVG Export Plug-In . SVG Version: 6.00 Build 0)  -->
<svg version="1.1" id="Capa_1" xmlns="http://www.w3.org/2000/svg" xmlns:xlink="http://www.w3.org/1999/xlink" x="0px" y="0px"
	 viewBox="0 0 512 512" style="enable-background:new 0 0 512 512;" xml:space="preserve">
<g>
	<g>
		<path d="M312.156,87.361c-0.217-0.489-0.485-0.951-0.794-1.38c-12.895-21.728-36.586-36.332-63.634-36.332
			c-27.049,0-50.74,14.605-63.635,36.335c-0.308,0.428-0.575,0.887-0.791,1.375c-6.055,10.719-9.528,23.08-9.528,36.245
			c0,13.168,3.475,25.533,9.532,36.254c0.215,0.481,0.478,0.935,0.782,1.359c12.894,21.734,36.588,36.342,63.639,36.342
			c27.051,0,50.744-14.607,63.639-36.341c0.305-0.425,0.57-0.881,0.785-1.364c6.056-10.721,9.531-23.084,9.531-36.251
			C321.682,110.44,318.21,98.08,312.156,87.361z M247.727,65.164c2.785,0,7.612,5.936,11.423,17.583h-22.847
			C240.117,71.1,244.942,65.164,247.727,65.164z M232.601,98.262h30.254c0.863,5.247,1.485,11.116,1.768,17.584h-33.789
			C231.116,109.378,231.738,103.509,232.601,98.262z M195.075,98.262h21.899c-0.845,5.695-1.399,11.607-1.656,17.584h-24.93
			c-0.193,0-0.383,0.014-0.573,0.029C190.643,109.645,192.439,103.716,195.075,98.262z M195.073,148.944
			c-2.635-5.454-4.431-11.383-5.259-17.613c0.19,0.013,0.38,0.029,0.573,0.029h24.93c0.257,5.976,0.811,11.889,1.655,17.584H195.073
			z M205.997,164.46h14.176c1.258,4.619,2.746,8.936,4.468,12.822C217.605,174.243,211.285,169.86,205.997,164.46z M220.173,82.746
			h-14.175c5.288-5.4,11.607-9.783,18.643-12.82C222.92,73.813,221.431,78.127,220.173,82.746z M247.727,182.043
			c-2.786,0-7.612-5.936-11.423-17.585h22.848C255.339,176.107,250.513,182.043,247.727,182.043z M262.856,148.944h-30.255
			c-0.863-5.247-1.485-11.116-1.768-17.584h33.79C264.341,137.828,263.718,143.697,262.856,148.944z M289.458,82.746h-14.175
			c-1.258-4.619-2.746-8.935-4.468-12.82C277.849,72.965,284.169,77.346,289.458,82.746z M270.815,177.28
			c1.722-3.886,3.211-8.201,4.469-12.821h14.176C284.171,169.86,277.851,174.242,270.815,177.28z M300.383,148.944h-21.899
			c0.844-5.695,1.398-11.607,1.655-17.584h24.93c0.193,0,0.384-0.016,0.573-0.029C304.814,137.561,303.018,143.49,300.383,148.944z
			 M305.068,115.845h-24.93c-0.257-5.976-0.811-11.889-1.655-17.584h21.898c2.635,5.454,4.432,11.383,5.26,17.613
			C305.451,115.86,305.262,115.845,305.068,115.845z"/>
	</g>
</g>
<g>
	<g>
		<path d="M429.253,248.985V206.35c0-13.403-10.904-24.307-24.306-24.307h-41.891V7.758c0-4.284-3.472-7.758-7.758-7.758H140.157
			c-4.285,0-7.758,3.473-7.758,7.758v174.286H82.252c-0.007,0-0.013-0.001-0.02-0.001c-17.952,0-32.559,14.595-32.581,32.543
			c0,0.013-0.002,0.027-0.002,0.04l0.001,264.793c0,17.967,14.616,32.582,32.582,32.582h40.544c4.285,0,7.758-3.473,7.758-7.758
			s-3.472-7.758-7.758-7.758H82.232c-9.411,0-17.067-7.656-17.067-17.067l-0.001-237.054c4.967,3.068,10.813,4.843,17.068,4.843
			c0.024,0,0.047-0.003,0.07-0.003h57.784c0.024,0,0.047,0.003,0.07,0.003c0.024,0,0.047-0.003,0.07-0.003h215.002
			c0.024,0,0.047,0.003,0.07,0.003c0.024,0,0.047-0.003,0.07-0.003h49.578c4.848,0,8.791,3.944,8.791,8.791v0.004v58.436H305.652
			c-13.403,0-24.307,10.904-24.307,24.307v66.199c0,13.403,10.904,24.307,24.307,24.307l108.086-0.005v58.45
			c0,4.847-3.944,8.792-8.791,8.792H153.775c-4.285,0-7.758,3.473-7.758,7.758S149.49,512,153.775,512h251.172
			c13.402,0,24.306-10.905,24.306-24.307v-59.199c18.83-3.635,33.098-20.233,33.098-40.108v-99.295
			C462.35,269.218,448.083,252.62,429.253,248.985z M132.399,231.689H82.232c-0.011,0-0.023,0.002-0.035,0.002
			c-9.394-0.02-17.031-7.667-17.031-17.066c0-9.407,7.651-17.062,17.056-17.067c0.003,0,0.006,0,0.01,0h50.167V231.689z
			 M347.54,231.689H147.914V15.515H347.54V231.689z M413.737,233.341c-2.729-1.062-5.691-1.652-8.791-1.652h-41.891v-34.13h41.891
			c4.848,0,8.791,3.944,8.791,8.792V233.341z M446.835,388.387c0,13.973-11.367,25.34-25.34,25.34l-115.844,0.005
			c-4.847,0-8.792-3.944-8.792-8.792v-66.199c0-4.847,3.945-8.792,8.792-8.792h115.844c0.027,0,0.054-0.004,0.081-0.004
			c9.537-0.019,18.309-3.327,25.26-8.842V388.387z M429.253,313.214v-48.242c10.189,3.284,17.583,12.853,17.583,24.121
			C446.835,300.36,439.442,309.929,429.253,313.214z"/>
	</g>
</g>
<g>
	<g>
		<path d="M347.023,339.257c-17.966,0-32.583,14.616-32.583,32.583c0,17.967,14.616,32.583,32.583,32.583
			c17.967,0,32.584-14.616,32.584-32.583C379.607,353.875,364.99,339.257,347.023,339.257z M347.023,388.909
			c-9.411,0-17.068-7.656-17.068-17.068s7.656-17.068,17.068-17.068c9.413,0,17.069,7.656,17.069,17.068
			C364.092,381.252,356.436,388.909,347.023,388.909z"/>
	</g>
</g>
<g>
</g>
<g>
</g>
<g>
</g>
<g>
</g>
<g>
</g>
<g>
</g>
<g>
</g>
<g>
</g>
<g>
</g>
<g>
</g>
<g>
</g>
<g>
</g>
<g>
</g>
<g>
</g>
<g>
</g>
</svg>
